<?xml version="1.0" standalone="no"?>
<!DOCTYPE svg PUBLIC "-//W3C//DTD SVG 20010904//EN"
 "http://www.w3.org/TR/2001/REC-SVG-20010904/DTD/svg10.dtd">
<svg version="1.0" xmlns="http://www.w3.org/2000/svg"
 width="800.000000pt" height="800.000000pt" viewBox="0 0 800.000000 800.000000"
 preserveAspectRatio="xMidYMid meet">

<g transform="translate(0.000000,800.000000) scale(0.100000,-0.100000)"
fill="#000000" stroke="none">
<path d="M2700 5935 l0 -745 -685 0 -685 0 0 -1250 0 -1250 2680 0 2680 0 0
1995 0 1995 -1995 0 -1995 0 0 -745z m3740 -1250 l0 -1745 -1305 0 -1305 0 0
1125 0 1125 -440 0 -440 0 0 620 0 620 1745 0 1745 0 0 -1745z m-3740 -745 l0
-1000 -560 0 -560 0 0 1000 0 1000 560 0 560 0 0 -1000z m880 0 l0 -1000 -315
0 -315 0 0 1000 0 1000 315 0 315 0 0 -1000z"/>
<path d="M5246 2429 c-74 -10 -154 -45 -199 -87 -80 -75 -108 -238 -61 -351
20 -49 79 -108 137 -137 26 -14 103 -43 170 -65 177 -59 196 -74 197 -155 0
-43 -5 -57 -28 -82 -46 -49 -93 -57 -267 -42 -82 7 -161 14 -175 14 -23 1 -25
-3 -35 -81 -6 -46 -11 -83 -10 -83 0 0 46 -9 103 -20 223 -43 362 -37 474 22
107 57 158 153 158 299 0 174 -55 232 -305 319 -183 64 -211 81 -221 135 -8
46 18 93 64 112 31 13 64 15 192 9 85 -3 173 -9 196 -12 l41 -6 7 81 c3 45 4
86 1 90 -6 10 -192 38 -295 44 -41 3 -106 1 -144 -4z"/>
<path d="M1320 1876 l0 -546 115 0 115 0 0 180 0 180 104 0 104 0 50 -142 c27
-79 55 -160 61 -180 l13 -38 119 0 c65 0 119 3 119 8 0 4 -34 97 -75 206 l-74
199 48 43 c31 28 58 65 77 106 25 56 28 74 29 163 0 55 -6 118 -12 141 -19 60
-64 122 -113 155 -82 55 -121 61 -412 66 l-268 5 0 -546z m499 336 c61 -30 76
-62 76 -156 0 -74 -3 -86 -27 -117 -35 -46 -80 -59 -212 -59 l-106 0 0 175 0
175 118 0 c92 0 124 -4 151 -18z"/>
<path d="M2400 1875 l0 -545 355 0 355 0 0 95 0 95 -245 0 -245 0 0 130 0 130
195 0 195 0 0 95 0 95 -195 0 -195 0 0 125 0 125 243 2 242 3 0 95 0 95 -352
3 -353 2 0 -545z"/>
<path d="M3370 1874 l0 -546 263 5 c268 4 308 10 383 51 71 38 114 97 150 201
24 71 27 99 32 250 7 254 -19 378 -98 467 -81 93 -193 118 -527 118 l-203 0 0
-546z m511 325 c30 -15 46 -33 62 -67 20 -43 22 -63 22 -242 0 -214 -6 -248
-57 -306 -40 -45 -106 -64 -225 -64 l-93 0 0 350 0 350 125 0 c107 0 132 -3
166 -21z"/>
<path d="M4480 1875 l0 -545 110 0 110 0 0 545 0 545 -110 0 -110 0 0 -545z"/>
<path d="M5880 2320 l0 -100 145 0 145 0 0 -445 0 -445 110 0 110 0 0 445 0
445 145 0 145 0 0 100 0 100 -400 0 -400 0 0 -100z"/>
</g>
</svg>
